<svg xmlns="http://www.w3.org/2000/svg" width="1200" height="1600" viewBox="0 0 1200 1600">
<rect width="1200" height="1600" fill="#d6ea57"/><path d="M870-100 1300 620M1010-100 1440 620M-150 1190 150 1660" stroke="#152125" stroke-opacity=".08" stroke-width="130"/>
<g fill="#152125" font-family="Arial,Microsoft YaHei,sans-serif"><text x="72" y="92" font-size="28" letter-spacing="4">WESLEY / OPERATIONS LOG</text><text x="72" y="280" font-size="145" font-weight="800">记录。</text><text x="72" y="454" font-size="145" font-weight="800">再复盘。</text><text x="76" y="557" font-size="32">数字之外，还有做过的动作。</text></g>
<g fill="none" stroke="#152125" stroke-width="4"><circle cx="600" cy="1030" r="312"/><path d="m878 880 40 68-80-10M322 1180l-40-68 80 10" stroke-width="12"/></g>
<g font-family="Arial,Microsoft YaHei,sans-serif" text-anchor="middle"><rect x="397" y="673" width="406" height="124" fill="#152125"/><text x="600" y="752" font-size="39" fill="#d6ea57">为什么做</text><rect x="781" y="967" width="320" height="124" fill="#152125"/><text x="941" y="1046" font-size="39" fill="#d6ea57">做了什么</text><rect x="397" y="1264" width="406" height="124" fill="#152125"/><text x="600" y="1343" font-size="39" fill="#d6ea57">下一步呢</text><rect x="99" y="967" width="320" height="124" fill="#152125"/><text x="259" y="1046" font-size="39" fill="#d6ea57">留下什么</text><text x="600" y="1041" font-size="40" fill="#152125">REVIEW</text></g>
<path d="M72 1440H1128" stroke="#152125"/><g fill="#152125" font-family="Arial,Microsoft YaHei,sans-serif"><text x="72" y="1508" font-size="26">运营复盘 / 判断方法</text><text x="1128" y="1508" font-size="20" text-anchor="end">工作方法示意</text></g>
</svg>
